<?xml version="1.0" encoding="utf-8"?>
<!-- Generator: Adobe Illustrator 19.0.0, SVG Export Plug-In . SVG Version: 6.00 Build 0)  -->
<svg version="1.1" id="Warstwa_1" xmlns="http://www.w3.org/2000/svg" xmlns:xlink="http://www.w3.org/1999/xlink" x="0px" y="0px"
	 viewBox="0 0 64 54.9" style="enable-background:new 0 0 64 54.9;" xml:space="preserve">
<style type="text/css">
	.st0{fill:#FFFFFF;}
</style>
<g id="XMLID_2_">
	<g id="Book">
		<g id="XMLID_3_">
			<path id="XMLID_4_" class="st0" d="M60.3,0H47.5C40.8,0,35.2,2,32,5C28.8,2,23.2,0,16.5,0H3.7C1.6,0,0,1.6,0,3.7v42.1
				c0,2,1.6,3.7,3.7,3.7h12.8c4.9,0,10.2,2.1,12.1,4.1c0.9,0.9,2.1,1.4,3.3,1.4h0.4c1.2,0,2.4-0.5,3.3-1.4c1.9-2,7.2-4.1,12.1-4.1
				h12.8c2,0,3.7-1.6,3.7-3.7V3.7C64,1.6,62.4,0,60.3,0z M29.3,46.9c-3.2-1.9-7.7-3-12.8-3h-11V5.5h11c7.8,0,12.8,3.2,12.8,5.5
				L29.3,46.9L29.3,46.9z M58.5,43.9h-11c-5.1,0-9.6,1.1-12.8,3V11c0-2.2,5-5.5,12.8-5.5h11L58.5,43.9L58.5,43.9z"/>
		</g>
	</g>
</g>
</svg>
