<?xml version="1.0" encoding="utf-8"?>
<!-- Generator: Adobe Illustrator 19.0.0, SVG Export Plug-In . SVG Version: 6.00 Build 0)  -->
<svg version="1.1" id="Capa_1" xmlns="http://www.w3.org/2000/svg" xmlns:xlink="http://www.w3.org/1999/xlink" x="0px" y="0px"
	 viewBox="152 -156.6 368.6 368.6" style="enable-background:new 152 -156.6 368.6 368.6;" xml:space="preserve">
<style type="text/css">
	.st0{fill:#FFFFFF;}
</style>
<g>
	<g>
		<path class="st0" d="M508.1-106.3H164.5c-6.9,0-12.5,5.6-12.5,12.5v243c0,6.9,5.6,12.5,12.5,12.5h343.6c6.9,0,12.5-5.6,12.5-12.5
			v-243C520.6-100.7,515-106.3,508.1-106.3z M495.6,136.7H177v-218h318.6V136.7z"/>
		<path class="st0" d="M209.8-22.4l120,73.9c2,1.2,4.3,1.9,6.6,1.9s4.5-0.6,6.6-1.9l120-73.9c5.9-3.6,7.7-11.3,4.1-17.2
			s-11.3-7.7-17.2-4.1L336.3,26.2L222.9-43.7c-5.9-3.6-13.6-1.8-17.2,4.1C202-33.7,203.9-26,209.8-22.4z"/>
	</g>
</g>
</svg>
