<?xml version="1.0" encoding="utf-8"?>
<!-- Generator: Adobe Illustrator 19.0.0, SVG Export Plug-In . SVG Version: 6.00 Build 0)  -->
<svg version="1.1" id="Warstwa_1" xmlns="http://www.w3.org/2000/svg" xmlns:xlink="http://www.w3.org/1999/xlink" x="0px" y="0px"
	 viewBox="0 4 74.3 64" style="enable-background:new 0 4 74.3 64;" xml:space="preserve">
<style type="text/css">
	.st0{fill:#FFFFFF;stroke:#FFFFFF;stroke-miterlimit:10;}
</style>
<path class="st0" d="M59.6,65.2H11.3c-4.5,0-8.2-3.7-8.2-8.2V23.4c0-4.5,3.7-8.2,8.2-8.2h13.8L48,6.8c0.3-0.1,0.5-0.1,0.8,0
	c0.2,0.1,0.4,0.3,0.5,0.6l1,2.9l6-1.9c0.3-0.1,0.6-0.1,0.8,0.1c0.2,0.1,0.4,0.4,0.5,0.6l1.6,6.1h0.4c4.5,0,8.2,3.7,8.2,8.2v8.4
	c2,0.5,3.4,2.3,3.4,4.5v7.8c0,2.1-1.4,3.9-3.4,4.5V57C67.8,61.5,64.1,65.2,59.6,65.2z M11.3,17.3c-3.4,0-6.2,2.8-6.2,6.2V57
	c0,3.4,2.8,6.2,6.2,6.2h48.3c3.4,0,6.2-2.8,6.2-6.2v-8.2H47.7c-2.4,0-4.4-2-4.4-4.4V36c0-2.4,2-4.4,4.4-4.4h18.1v-8.2
	c0-3.4-2.8-6.2-6.2-6.2h-1.1c0,0,0,0,0,0h-7.2c0,0,0,0,0,0H25.3c0,0,0,0,0,0H11.3z M45.3,44.1c0,1.4,1.2,2.6,2.6,2.6h18.6
	c1.4,0,2.6-1.2,2.6-2.6v-7.8c0-1.4-1.2-2.6-2.6-2.6H47.9c-1.4,0-2.6,1.2-2.6,2.6C45.3,36.3,45.3,44.1,45.3,44.1z M51.9,15.2h5.2
	l-1.2-4.5l-5,1.6L51.9,15.2z M31,15.2h18.9L48.7,12c0,0,0,0,0,0c0,0,0,0,0,0l-1-2.9L31,15.2z M51.2,44c-2.1,0-3.8-1.7-3.8-3.8
	c0-2.1,1.7-3.8,3.8-3.8c2.1,0,3.8,1.7,3.8,3.8C55,42.3,53.3,44,51.2,44z M51.2,38.4c-1,0-1.8,0.8-1.8,1.8s0.8,1.8,1.8,1.8
	s1.8-0.8,1.8-1.8S52.2,38.4,51.2,38.4z"/>
</svg>
