<?xml version="1.0" encoding="utf-8"?>
<!-- Generator: Adobe Illustrator 19.0.0, SVG Export Plug-In . SVG Version: 6.00 Build 0)  -->
<svg version="1.1" id="Warstwa_1" xmlns="http://www.w3.org/2000/svg" xmlns:xlink="http://www.w3.org/1999/xlink" x="0px" y="0px"
	 viewBox="0 0 70 70" style="enable-background:new 0 0 70 70;" xml:space="preserve">
<style type="text/css">
	.st0{fill:#FFFFFF;stroke:#FECB00;stroke-width:3;stroke-miterlimit:10;}
</style>
<g id="XMLID_2_">
	<g id="XMLID_3_">
		<path id="XMLID_4_" class="st0" d="M62.5,63.1L57,66.7c-3.5,2.4-18.5,5.2-38.9-19.6C-1.6,23.3,4,10.1,6.6,7.1l4.5-4.7
			c1.1-0.9,2.7-0.8,3.6,0.3l11.9,14.1l0,0c0.9,1,0.8,2.6-0.3,3.6v0l-5.3,3.8c-2.1,2.1-0.3,5.3,1.9,8.5l10.2,12
			c4.7,4.6,7.3,6.7,9.6,5.2l4.4-4.9c1.1-0.9,2.7-0.8,3.6,0.3l12,14.1v0C63.6,60.5,63.6,62.1,62.5,63.1z"/>
	</g>
</g>
</svg>
