<?xml version="1.0" encoding="utf-8"?>
<!-- Generator: Adobe Illustrator 19.0.0, SVG Export Plug-In . SVG Version: 6.00 Build 0)  -->
<svg version="1.1" id="Warstwa_1" xmlns="http://www.w3.org/2000/svg" xmlns:xlink="http://www.w3.org/1999/xlink" x="0px" y="0px"
	 viewBox="-22 0 33.8 64" style="enable-background:new -22 0 33.8 64;" xml:space="preserve">
<style type="text/css">
	.st0{fill:#FFFFFF;}
</style>
<g id="XMLID_39_">
	<path id="XMLID_71_" class="st0" d="M5.3,5.1H4.6V1.2C4.5,0.5,4,0,3.3,0h-16.8c-0.7,0-1.2,0.5-1.2,1.2v3.9h-0.8
		c-3.5,0-6.5,3.2-6.5,6.8v45.6c0,3.6,2.9,6.5,6.5,6.5H5.3c3.6,0,6.5-2.9,6.5-6.5V11.6C11.8,8.1,8.8,5.1,5.3,5.1z M-12.3,2.4H2.1v3.9
		l0,0l0,0v5h-14.4C-12.3,11.3-12.3,2.4-12.3,2.4z M9.3,57.5c0,2.2-1.8,4.1-4.1,4.1h-20.7c-2.2,0-4.1-1.8-4.1-4.1V11.9
		c0-2.3,1.9-4.4,4.1-4.4h0.8v3.8H-16c-0.7,0-1.2,0.5-1.2,1.2s0.5,1.2,1.2,1.2h2.5H3.3h2.4c0.7,0,1.2-0.5,1.2-1.2s-0.5-1.2-1.2-1.2
		H4.5V7.6h0.7c2.2,0,4.1,1.8,4.1,4.1L9.3,57.5L9.3,57.5z"/>
	<path id="XMLID_68_" class="st0" d="M-12.3,33.9h-2.4c-1.3,0-2.4,1.1-2.4,2.4v1.2c0,1.3,1.1,2.4,2.4,2.4h2.4c1.3,0,2.4-1.1,2.4-2.4
		v-1.2C-9.9,35-11,33.9-12.3,33.9z M-14.7,37.5v-1.2h2.4v1.2H-14.7z"/>
	<path id="XMLID_65_" class="st0" d="M-3.9,33.9h-2.4c-1.3,0-2.4,1.1-2.4,2.4v1.2c0,1.3,1.1,2.4,2.4,2.4h2.4c1.3,0,2.4-1.1,2.4-2.4
		v-1.2C-1.5,35-2.5,33.9-3.9,33.9z M-6.3,37.5v-1.2h2.4v1.2H-6.3z"/>
	<path id="XMLID_62_" class="st0" d="M4.5,33.9H2.1c-1.3,0-2.4,1.1-2.4,2.4v1.2c0,1.3,1.1,2.4,2.4,2.4h2.4c1.3,0,2.4-1.1,2.4-2.4
		v-1.2C6.9,35,5.8,33.9,4.5,33.9z M2.1,37.5v-1.2h2.4v1.2H2.1z"/>
	<path id="XMLID_59_" class="st0" d="M-12.3,41.2h-2.4c-1.3,0-2.4,1.1-2.4,2.4v1.2c0,1.3,1.1,2.4,2.4,2.4h2.4c1.3,0,2.4-1.1,2.4-2.4
		v-1.2C-9.9,42.3-11,41.2-12.3,41.2z M-14.7,44.8v-1.2h2.4v1.2H-14.7z"/>
	<path id="XMLID_56_" class="st0" d="M-3.9,41.2h-2.4c-1.3,0-2.4,1.1-2.4,2.4v1.2c0,1.3,1.1,2.4,2.4,2.4h2.4c1.3,0,2.4-1.1,2.4-2.4
		v-1.2C-1.5,42.3-2.5,41.2-3.9,41.2z M-6.3,44.8v-1.2h2.4v1.2H-6.3z"/>
	<path id="XMLID_53_" class="st0" d="M4.5,41.2H2.1c-1.3,0-2.4,1.1-2.4,2.4v1.2c0,1.3,1.1,2.4,2.4,2.4h2.4c1.3,0,2.4-1.1,2.4-2.4
		v-1.2C6.9,42.3,5.8,41.2,4.5,41.2z M2.1,44.8v-1.2h2.4v1.2H2.1z"/>
	<path id="XMLID_50_" class="st0" d="M-12.3,48.3h-2.4c-1.3,0-2.4,1.1-2.4,2.4V52c0,1.3,1.1,2.4,2.4,2.4h2.4c1.3,0,2.4-1.1,2.4-2.4
		v-1.2C-9.9,49.4-11,48.3-12.3,48.3z M-14.7,52v-1.2h2.4V52H-14.7z"/>
	<path id="XMLID_47_" class="st0" d="M-3.9,48.3h-2.4c-1.3,0-2.4,1.1-2.4,2.4V52c0,1.3,1.1,2.4,2.4,2.4h2.4c1.3,0,2.4-1.1,2.4-2.4
		v-1.2C-1.5,49.4-2.5,48.3-3.9,48.3z M-6.3,52v-1.2h2.4V52H-6.3z"/>
	<path id="XMLID_44_" class="st0" d="M4.5,48.3H2.1c-1.3,0-2.4,1.1-2.4,2.4V52c0,1.3,1.1,2.4,2.4,2.4h2.4c1.3,0,2.4-1.1,2.4-2.4
		v-1.2C6.9,49.4,5.8,48.3,4.5,48.3z M2.1,52v-1.2h2.4V52H2.1z"/>
	<path id="XMLID_16_" class="st0" d="M-2.7,56.8h-4.8c-0.7,0-1.2,0.5-1.2,1.2s0.5,1.2,1.2,1.2h4.8c0.7,0,1.2-0.5,1.2-1.2
		S-2,56.8-2.7,56.8z"/>
	<path id="XMLID_40_" class="st0" d="M-14.8,30.3H4.5c1.3,0,2.4-1.1,2.4-2.4v-8.6c0-1.3-1.1-2.4-2.4-2.4h-19.3
		c-1.3,0-2.4,1.1-2.4,2.4v8.6C-17.2,29.2-16.1,30.3-14.8,30.3z M-14.8,19.3h3.1l2.2,2.2c0.2,0.2,0.5,0.4,0.9,0.4s0.6-0.1,0.9-0.4
		c0.5-0.5,0.5-1.2,0-1.7l-0.5-0.5H4.6v8.6H0.4l-4.6-4.6c-0.5-0.5-1.2-0.5-1.7,0s-0.5,1.2,0,1.7l2.9,2.9h-11.8
		C-14.8,27.9-14.8,19.3-14.8,19.3z"/>
</g>
</svg>
