<?xml version="1.0" encoding="utf-8"?>
<!-- Generator: Adobe Illustrator 19.0.0, SVG Export Plug-In . SVG Version: 6.00 Build 0)  -->
<svg version="1.1" id="Warstwa_1" xmlns="http://www.w3.org/2000/svg" xmlns:xlink="http://www.w3.org/1999/xlink" x="0px" y="0px"
	 viewBox="-7 0 64 64" style="enable-background:new -7 0 64 64;" xml:space="preserve">
<style type="text/css">
	.st0{fill:#FFFFFF;}
</style>
<g id="XMLID_3_">
	<path id="XMLID_2_" class="st0" d="M56.4,57.5l-6-4c-0.6-0.4-1.5-0.2-1.9,0.4c-0.4,0.6-0.2,1.5,0.4,1.9l2.2,1.5H-0.2V44.8
		c1.5,0,3.8,0,6.2-0.7c5.5-1.5,8.9-5.1,10-10.4c1.4-7.1,5.1-10.2,8.1-10.2l0,0c3.2,0,5.8,3.4,6.7,8.8c0.6,3.2,0.8,6.2,1,8.7
		c0.3,4,0.6,7.1,1.9,9.4c1.5,2.6,4.1,3.8,8.4,3.8c0.8,0,1.4-0.6,1.4-1.4s-0.6-1.4-1.4-1.4c-4,0-5.3-1.2-6-2.4
		c-1-1.8-1.2-4.6-1.5-8.3c-0.2-2.6-0.5-5.6-1-9c-1.4-8.1-5.8-11.1-9.4-11.1c-2.4,0-4.8,1.1-6.7,3.3c-2,2.2-3.4,5.4-4.2,9.1
		c-0.8,4.2-3.5,7-7.9,8.2C3.1,42,1,42.1-0.2,42V6l1.5,2.2C1.6,8.6,2,8.8,2.5,8.8c0.3,0,0.5-0.1,0.8-0.2c0.6-0.4,0.8-1.3,0.4-1.9
		l-4-6C-0.7,0.2-1.2,0-1.6,0s-0.9,0.2-1.2,0.6l-4,6c-0.4,0.7-0.2,1.5,0.4,2C-5.7,9-4.9,8.8-4.5,8.2L-3,6v7.2h-1.8
		c-0.8,0-1.4,0.6-1.4,1.4S-5.6,16-4.8,16H-3v8.3h-1.8c-0.8,0-1.4,0.6-1.4,1.4s0.6,1.4,1.4,1.4H-3v8.3h-1.8c-0.8,0-1.4,0.6-1.4,1.4
		S-5.6,38-4.8,38H-3v8.3h-1.8c-0.8,0-1.4,0.6-1.4,1.4c0,0.8,0.6,1.4,1.4,1.4H-3v8.3h-1.8c-0.8,0-1.4,0.6-1.4,1.4S-5.6,60-4.8,60H-3
		v1.8c0,0.8,0.6,1.4,1.4,1.4s1.4-0.6,1.4-1.4V60H8v1.8c0,0.8,0.6,1.4,1.4,1.4s1.4-0.6,1.4-1.4V60H19v1.8c0,0.8,0.6,1.4,1.4,1.4
		s1.4-0.6,1.4-1.4V60h8.3v1.8c0,0.8,0.6,1.4,1.4,1.4c0.8,0,1.4-0.6,1.4-1.4V60h8.3v1.8c0,0.8,0.6,1.4,1.4,1.4c0.8,0,1.4-0.6,1.4-1.4
		V60h7l-2.2,1.5c-0.6,0.4-0.8,1.3-0.4,1.9c0.3,0.4,0.7,0.6,1.2,0.6c0.3,0,0.5-0.1,0.8-0.2l6-4c0.4-0.3,0.6-0.7,0.6-1.2
		C57,58.2,56.8,57.7,56.4,57.5z"/>
</g>
</svg>
