<?xml version="1.0" encoding="utf-8"?>
<!-- Generator: Adobe Illustrator 19.0.0, SVG Export Plug-In . SVG Version: 6.00 Build 0)  -->
<svg version="1.1" id="Warstwa_1" xmlns="http://www.w3.org/2000/svg" xmlns:xlink="http://www.w3.org/1999/xlink" x="0px" y="0px"
	 viewBox="-8 0 62.1 64" style="enable-background:new -8 0 62.1 64;" xml:space="preserve">
<style type="text/css">
	.st0{fill:#FFFFFF;}
</style>
<g id="XMLID_39_">
	<g id="XMLID_40_">
		<path id="XMLID_66_" class="st0" d="M49.6,0.1H-3.6C-6,0.1-8,2.1-8,4.5s2,4.4,4.4,4.4h1.8v47.3c0,0.7,0.6,1.3,1.3,1.3h19.1v2.1
			c0,2.4,2,4.4,4.4,4.4s4.4-2,4.4-4.4v-2.1h19.1c0.7,0,1.3-0.6,1.3-1.3V9h1.8C52,9,54,7,54,4.6C54.1,2.1,52.1,0.1,49.6,0.1z
			 M24.7,59.7c0,0.9-0.8,1.7-1.7,1.7c-0.9,0-1.7-0.8-1.7-1.7v-2.1h3.4C24.7,57.6,24.7,59.7,24.7,59.7z M45.2,54.8H0.9V9h44.3V54.8z
			 M49.6,6.3H-3.6c-1,0-1.8-0.8-1.8-1.8s0.8-1.8,1.8-1.8h53.2c1,0,1.8,0.8,1.8,1.8S50.6,6.3,49.6,6.3z"/>
		<g id="XMLID_44_">
			<g id="XMLID_62_">
				<path id="XMLID_63_" class="st0" d="M15.5,49.7H8.2c-0.7,0-1.3-0.6-1.3-1.3v-8.3c0-0.7,0.6-1.3,1.3-1.3h7.3
					c0.7,0,1.3,0.6,1.3,1.3v8.3C16.8,49.1,16.2,49.7,15.5,49.7z M9.5,47h4.7v-5.6H9.5V47z"/>
			</g>
			<g id="XMLID_58_">
				<path id="XMLID_59_" class="st0" d="M26.7,49.7h-7.3c-0.7,0-1.3-0.6-1.3-1.3V34.1c0-0.7,0.6-1.3,1.3-1.3h7.3
					c0.7,0,1.3,0.6,1.3,1.3v14.3C28,49.1,27.4,49.7,26.7,49.7z M20.7,47h4.7V35.3h-4.7V47z"/>
			</g>
			<g id="XMLID_47_">
				<path id="XMLID_50_" class="st0" d="M37.9,49.7h-7.3c-0.7,0-1.3-0.6-1.3-1.3v-28c0-0.7,0.6-1.3,1.3-1.3h7.3
					c0.7,0,1.3,0.6,1.3,1.3v28C39.3,49.1,38.7,49.7,37.9,49.7z M31.9,47h4.7V21.7h-4.7C31.9,21.7,31.9,47,31.9,47z"/>
			</g>
		</g>
	</g>
</g>
</svg>
